ISO-10303-21;
HEADER;
/* Generated by software containing ST-Developer
 * from STEP Tools, Inc. (www.steptools.com) 
 */
/* OPTION: using custom renumber hook */

FILE_DESCRIPTION(
/* description */ ('STEP AP242 Edition 2',
'CAx-IF Rec.Pracs.---Representation and Presentation of Product Manufa
cturing Information (PMI)---4.0---2014-10-13',
'CAx-IF Rec.Pracs.---3D Tessellated Geometry---0.4---2014-09-14','2;1',
'CAx-IF Rec.Pracs.---User Defined Attributes---1.5---2016-08-15'),
/* implementation_level */ '2;1');

FILE_NAME(
/* name */ 'Part Studio 1 - Part 1',
/* time_stamp */ '2026-08-28T10:27:58Z',
/* author */ (''),
/* organization */ (''),
/* preprocessor_version */ 'ST-DEVELOPER v20',
/* originating_system */ 'ONSHAPE BY PTC INC, 1.219',
/* authorisation */ '  ');

FILE_SCHEMA (('AP242_MANAGED_MODEL_BASED_3D_ENGINEERING_MIM_LF { 1 0 10303 442 3 1 4 }'));
ENDSEC;

DATA;
#10=SHAPE_REPRESENTATION_RELATIONSHIP('','',#449,#11);
#11=ADVANCED_BREP_SHAPE_REPRESENTATION('',(#447),#755);
#12=CIRCLE('',#453,0.003);
#13=CIRCLE('',#454,0.003);
#14=CIRCLE('',#457,0.003);
#15=CIRCLE('',#458,0.003);
#16=CIRCLE('',#461,0.003);
#17=CIRCLE('',#462,0.003);
#18=CIRCLE('',#465,0.003);
#19=CIRCLE('',#466,0.003);
#20=CIRCLE('',#468,0.0025);
#21=CIRCLE('',#469,0.0025);
#22=CIRCLE('',#470,0.0025);
#23=CIRCLE('',#471,0.0025);
#24=CIRCLE('',#478,0.00140000000000001);
#25=CIRCLE('',#479,0.00140000000000001);
#26=CIRCLE('',#480,0.00140000000000001);
#27=CIRCLE('',#481,0.00140000000000001);
#28=CIRCLE('',#483,0.00140000000000001);
#29=CIRCLE('',#485,0.0025);
#30=CIRCLE('',#488,0.00140000000000001);
#31=CIRCLE('',#490,0.0025);
#32=CIRCLE('',#493,0.00140000000000001);
#33=CIRCLE('',#495,0.0025);
#34=CIRCLE('',#498,0.00140000000000001);
#35=CIRCLE('',#500,0.0025);
#36=CYLINDRICAL_SURFACE('',#452,0.003);
#37=CYLINDRICAL_SURFACE('',#456,0.003);
#38=CYLINDRICAL_SURFACE('',#460,0.003);
#39=CYLINDRICAL_SURFACE('',#464,0.003);
#40=CYLINDRICAL_SURFACE('',#482,0.00140000000000001);
#41=CYLINDRICAL_SURFACE('',#486,0.0025);
#42=CYLINDRICAL_SURFACE('',#487,0.00140000000000001);
#43=CYLINDRICAL_SURFACE('',#491,0.0025);
#44=CYLINDRICAL_SURFACE('',#492,0.00140000000000001);
#45=CYLINDRICAL_SURFACE('',#496,0.0025);
#46=CYLINDRICAL_SURFACE('',#497,0.00140000000000001);
#47=CYLINDRICAL_SURFACE('',#501,0.0025);
#48=ORIENTED_EDGE('',*,*,#152,.T.);
#49=ORIENTED_EDGE('',*,*,#153,.F.);
#50=ORIENTED_EDGE('',*,*,#154,.F.);
#51=ORIENTED_EDGE('',*,*,#155,.T.);
#52=ORIENTED_EDGE('',*,*,#156,.T.);
#53=ORIENTED_EDGE('',*,*,#157,.F.);
#54=ORIENTED_EDGE('',*,*,#158,.F.);
#55=ORIENTED_EDGE('',*,*,#153,.T.);
#56=ORIENTED_EDGE('',*,*,#159,.F.);
#57=ORIENTED_EDGE('',*,*,#160,.F.);
#58=ORIENTED_EDGE('',*,*,#161,.T.);
#59=ORIENTED_EDGE('',*,*,#157,.T.);
#60=ORIENTED_EDGE('',*,*,#162,.T.);
#61=ORIENTED_EDGE('',*,*,#163,.F.);
#62=ORIENTED_EDGE('',*,*,#164,.F.);
#63=ORIENTED_EDGE('',*,*,#160,.T.);
#64=ORIENTED_EDGE('',*,*,#165,.F.);
#65=ORIENTED_EDGE('',*,*,#166,.F.);
#66=ORIENTED_EDGE('',*,*,#167,.T.);
#67=ORIENTED_EDGE('',*,*,#163,.T.);
#68=ORIENTED_EDGE('',*,*,#168,.T.);
#69=ORIENTED_EDGE('',*,*,#169,.F.);
#70=ORIENTED_EDGE('',*,*,#170,.F.);
#71=ORIENTED_EDGE('',*,*,#166,.T.);
#72=ORIENTED_EDGE('',*,*,#171,.T.);
#73=ORIENTED_EDGE('',*,*,#172,.F.);
#74=ORIENTED_EDGE('',*,*,#173,.F.);
#75=ORIENTED_EDGE('',*,*,#169,.T.);
#76=ORIENTED_EDGE('',*,*,#174,.T.);
#77=ORIENTED_EDGE('',*,*,#155,.F.);
#78=ORIENTED_EDGE('',*,*,#175,.F.);
#79=ORIENTED_EDGE('',*,*,#172,.T.);
#80=ORIENTED_EDGE('',*,*,#176,.T.);
#81=ORIENTED_EDGE('',*,*,#177,.T.);
#82=ORIENTED_EDGE('',*,*,#178,.T.);
#83=ORIENTED_EDGE('',*,*,#179,.T.);
#84=ORIENTED_EDGE('',*,*,#154,.T.);
#85=ORIENTED_EDGE('',*,*,#158,.T.);
#86=ORIENTED_EDGE('',*,*,#161,.F.);
#87=ORIENTED_EDGE('',*,*,#164,.T.);
#88=ORIENTED_EDGE('',*,*,#167,.F.);
#89=ORIENTED_EDGE('',*,*,#170,.T.);
#90=ORIENTED_EDGE('',*,*,#173,.T.);
#91=ORIENTED_EDGE('',*,*,#175,.T.);
#92=ORIENTED_EDGE('',*,*,#180,.F.);
#93=ORIENTED_EDGE('',*,*,#181,.T.);
#94=ORIENTED_EDGE('',*,*,#182,.T.);
#95=ORIENTED_EDGE('',*,*,#183,.F.);
#96=ORIENTED_EDGE('',*,*,#152,.F.);
#97=ORIENTED_EDGE('',*,*,#174,.F.);
#98=ORIENTED_EDGE('',*,*,#171,.F.);
#99=ORIENTED_EDGE('',*,*,#168,.F.);
#100=ORIENTED_EDGE('',*,*,#165,.T.);
#101=ORIENTED_EDGE('',*,*,#162,.F.);
#102=ORIENTED_EDGE('',*,*,#159,.T.);
#103=ORIENTED_EDGE('',*,*,#156,.F.);
#104=ORIENTED_EDGE('',*,*,#181,.F.);
#105=ORIENTED_EDGE('',*,*,#184,.F.);
#106=ORIENTED_EDGE('',*,*,#185,.T.);
#107=ORIENTED_EDGE('',*,*,#186,.T.);
#108=ORIENTED_EDGE('',*,*,#180,.T.);
#109=ORIENTED_EDGE('',*,*,#187,.F.);
#110=ORIENTED_EDGE('',*,*,#188,.F.);
#111=ORIENTED_EDGE('',*,*,#184,.T.);
#112=ORIENTED_EDGE('',*,*,#183,.T.);
#113=ORIENTED_EDGE('',*,*,#189,.F.);
#114=ORIENTED_EDGE('',*,*,#190,.F.);
#115=ORIENTED_EDGE('',*,*,#187,.T.);
#116=ORIENTED_EDGE('',*,*,#182,.F.);
#117=ORIENTED_EDGE('',*,*,#186,.F.);
#118=ORIENTED_EDGE('',*,*,#191,.T.);
#119=ORIENTED_EDGE('',*,*,#189,.T.);
#120=ORIENTED_EDGE('',*,*,#192,.F.);
#121=ORIENTED_EDGE('',*,*,#193,.F.);
#122=ORIENTED_EDGE('',*,*,#194,.F.);
#123=ORIENTED_EDGE('',*,*,#195,.F.);
#124=ORIENTED_EDGE('',*,*,#185,.F.);
#125=ORIENTED_EDGE('',*,*,#188,.T.);
#126=ORIENTED_EDGE('',*,*,#190,.T.);
#127=ORIENTED_EDGE('',*,*,#191,.F.);
#128=ORIENTED_EDGE('',*,*,#195,.T.);
#129=ORIENTED_EDGE('',*,*,#196,.F.);
#130=ORIENTED_EDGE('',*,*,#196,.T.);
#131=ORIENTED_EDGE('',*,*,#197,.F.);
#132=ORIENTED_EDGE('',*,*,#197,.T.);
#133=ORIENTED_EDGE('',*,*,#179,.F.);
#134=ORIENTED_EDGE('',*,*,#194,.T.);
#135=ORIENTED_EDGE('',*,*,#198,.F.);
#136=ORIENTED_EDGE('',*,*,#198,.T.);
#137=ORIENTED_EDGE('',*,*,#199,.F.);
#138=ORIENTED_EDGE('',*,*,#199,.T.);
#139=ORIENTED_EDGE('',*,*,#178,.F.);
#140=ORIENTED_EDGE('',*,*,#193,.T.);
#141=ORIENTED_EDGE('',*,*,#200,.F.);
#142=ORIENTED_EDGE('',*,*,#200,.T.);
#143=ORIENTED_EDGE('',*,*,#201,.F.);
#144=ORIENTED_EDGE('',*,*,#201,.T.);
#145=ORIENTED_EDGE('',*,*,#177,.F.);
#146=ORIENTED_EDGE('',*,*,#192,.T.);
#147=ORIENTED_EDGE('',*,*,#202,.F.);
#148=ORIENTED_EDGE('',*,*,#202,.T.);
#149=ORIENTED_EDGE('',*,*,#203,.F.);
#150=ORIENTED_EDGE('',*,*,#203,.T.);
#151=ORIENTED_EDGE('',*,*,#176,.F.);
#152=EDGE_CURVE('',#204,#205,#244,.T.);
#153=EDGE_CURVE('',#206,#205,#245,.T.);
#154=EDGE_CURVE('',#207,#206,#246,.T.);
#155=EDGE_CURVE('',#207,#204,#247,.T.);
#156=EDGE_CURVE('',#205,#208,#12,.T.);
#157=EDGE_CURVE('',#209,#208,#248,.T.);
#158=EDGE_CURVE('',#206,#209,#13,.T.);
#159=EDGE_CURVE('',#210,#208,#249,.T.);
#160=EDGE_CURVE('',#211,#210,#250,.T.);
#161=EDGE_CURVE('',#211,#209,#251,.T.);
#162=EDGE_CURVE('',#210,#212,#14,.T.);
#163=EDGE_CURVE('',#213,#212,#252,.T.);
#164=EDGE_CURVE('',#211,#213,#15,.T.);
#165=EDGE_CURVE('',#214,#212,#253,.T.);
#166=EDGE_CURVE('',#215,#214,#254,.T.);
#167=EDGE_CURVE('',#215,#213,#255,.T.);
#168=EDGE_CURVE('',#214,#216,#16,.T.);
#169=EDGE_CURVE('',#217,#216,#256,.T.);
#170=EDGE_CURVE('',#215,#217,#17,.T.);
#171=EDGE_CURVE('',#216,#218,#257,.T.);
#172=EDGE_CURVE('',#219,#218,#258,.T.);
#173=EDGE_CURVE('',#217,#219,#259,.T.);
#174=EDGE_CURVE('',#218,#204,#18,.T.);
#175=EDGE_CURVE('',#219,#207,#19,.T.);
#176=EDGE_CURVE('',#220,#220,#20,.T.);
#177=EDGE_CURVE('',#221,#221,#21,.T.);
#178=EDGE_CURVE('',#222,#222,#22,.T.);
#179=EDGE_CURVE('',#223,#223,#23,.T.);
#180=EDGE_CURVE('',#224,#225,#260,.T.);
#181=EDGE_CURVE('',#224,#226,#261,.T.);
#182=EDGE_CURVE('',#226,#227,#262,.T.);
#183=EDGE_CURVE('',#225,#227,#263,.T.);
#184=EDGE_CURVE('',#228,#224,#264,.T.);
#185=EDGE_CURVE('',#228,#229,#265,.T.);
#186=EDGE_CURVE('',#229,#226,#266,.T.);
#187=EDGE_CURVE('',#230,#225,#267,.T.);
#188=EDGE_CURVE('',#228,#230,#268,.T.);
#189=EDGE_CURVE('',#231,#227,#269,.T.);
#190=EDGE_CURVE('',#230,#231,#270,.T.);
#191=EDGE_CURVE('',#229,#231,#271,.T.);
#192=EDGE_CURVE('',#232,#232,#24,.T.);
#193=EDGE_CURVE('',#233,#233,#25,.T.);
#194=EDGE_CURVE('',#234,#234,#26,.T.);
#195=EDGE_CURVE('',#235,#235,#27,.T.);
#196=EDGE_CURVE('',#236,#236,#28,.T.);
#197=EDGE_CURVE('',#237,#237,#29,.T.);
#198=EDGE_CURVE('',#238,#238,#30,.T.);
#199=EDGE_CURVE('',#239,#239,#31,.T.);
#200=EDGE_CURVE('',#240,#240,#32,.T.);
#201=EDGE_CURVE('',#241,#241,#33,.T.);
#202=EDGE_CURVE('',#242,#242,#34,.T.);
#203=EDGE_CURVE('',#243,#243,#35,.T.);
#204=VERTEX_POINT('',#637);
#205=VERTEX_POINT('',#638);
#206=VERTEX_POINT('',#640);
#207=VERTEX_POINT('',#642);
#208=VERTEX_POINT('',#646);
#209=VERTEX_POINT('',#648);
#210=VERTEX_POINT('',#652);
#211=VERTEX_POINT('',#654);
#212=VERTEX_POINT('',#658);
#213=VERTEX_POINT('',#660);
#214=VERTEX_POINT('',#664);
#215=VERTEX_POINT('',#666);
#216=VERTEX_POINT('',#670);
#217=VERTEX_POINT('',#672);
#218=VERTEX_POINT('',#676);
#219=VERTEX_POINT('',#678);
#220=VERTEX_POINT('',#685);
#221=VERTEX_POINT('',#687);
#222=VERTEX_POINT('',#689);
#223=VERTEX_POINT('',#691);
#224=VERTEX_POINT('',#694);
#225=VERTEX_POINT('',#695);
#226=VERTEX_POINT('',#697);
#227=VERTEX_POINT('',#699);
#228=VERTEX_POINT('',#703);
#229=VERTEX_POINT('',#705);
#230=VERTEX_POINT('',#709);
#231=VERTEX_POINT('',#713);
#232=VERTEX_POINT('',#719);
#233=VERTEX_POINT('',#721);
#234=VERTEX_POINT('',#723);
#235=VERTEX_POINT('',#725);
#236=VERTEX_POINT('',#728);
#237=VERTEX_POINT('',#731);
#238=VERTEX_POINT('',#735);
#239=VERTEX_POINT('',#738);
#240=VERTEX_POINT('',#742);
#241=VERTEX_POINT('',#745);
#242=VERTEX_POINT('',#749);
#243=VERTEX_POINT('',#752);
#244=LINE('',#636,#272);
#245=LINE('',#639,#273);
#246=LINE('',#641,#274);
#247=LINE('',#643,#275);
#248=LINE('',#647,#276);
#249=LINE('',#651,#277);
#250=LINE('',#653,#278);
#251=LINE('',#655,#279);
#252=LINE('',#659,#280);
#253=LINE('',#663,#281);
#254=LINE('',#665,#282);
#255=LINE('',#667,#283);
#256=LINE('',#671,#284);
#257=LINE('',#675,#285);
#258=LINE('',#677,#286);
#259=LINE('',#679,#287);
#260=LINE('',#693,#288);
#261=LINE('',#696,#289);
#262=LINE('',#698,#290);
#263=LINE('',#700,#291);
#264=LINE('',#702,#292);
#265=LINE('',#704,#293);
#266=LINE('',#706,#294);
#267=LINE('',#708,#295);
#268=LINE('',#710,#296);
#269=LINE('',#712,#297);
#270=LINE('',#714,#298);
#271=LINE('',#716,#299);
#272=VECTOR('',#506,1.);
#273=VECTOR('',#507,1.);
#274=VECTOR('',#508,1.);
#275=VECTOR('',#509,1.);
#276=VECTOR('',#514,1.);
#277=VECTOR('',#519,1.);
#278=VECTOR('',#520,1.);
#279=VECTOR('',#521,1.);
#280=VECTOR('',#526,1.);
#281=VECTOR('',#531,1.);
#282=VECTOR('',#532,1.);
#283=VECTOR('',#533,1.);
#284=VECTOR('',#538,1.);
#285=VECTOR('',#543,1.);
#286=VECTOR('',#544,1.);
#287=VECTOR('',#545,1.);
#288=VECTOR('',#564,1.);
#289=VECTOR('',#565,1.);
#290=VECTOR('',#566,1.);
#291=VECTOR('',#567,1.);
#292=VECTOR('',#570,1.);
#293=VECTOR('',#571,1.);
#294=VECTOR('',#572,1.);
#295=VECTOR('',#575,1.);
#296=VECTOR('',#576,1.);
#297=VECTOR('',#579,1.);
#298=VECTOR('',#580,1.);
#299=VECTOR('',#583,1.);
#300=EDGE_LOOP('',(#48,#49,#50,#51));
#301=EDGE_LOOP('',(#52,#53,#54,#55));
#302=EDGE_LOOP('',(#56,#57,#58,#59));
#303=EDGE_LOOP('',(#60,#61,#62,#63));
#304=EDGE_LOOP('',(#64,#65,#66,#67));
#305=EDGE_LOOP('',(#68,#69,#70,#71));
#306=EDGE_LOOP('',(#72,#73,#74,#75));
#307=EDGE_LOOP('',(#76,#77,#78,#79));
#308=EDGE_LOOP('',(#80));
#309=EDGE_LOOP('',(#81));
#310=EDGE_LOOP('',(#82));
#311=EDGE_LOOP('',(#83));
#312=EDGE_LOOP('',(#84,#85,#86,#87,#88,#89,#90,#91));
#313=EDGE_LOOP('',(#92,#93,#94,#95));
#314=EDGE_LOOP('',(#96,#97,#98,#99,#100,#101,#102,#103));
#315=EDGE_LOOP('',(#104,#105,#106,#107));
#316=EDGE_LOOP('',(#108,#109,#110,#111));
#317=EDGE_LOOP('',(#112,#113,#114,#115));
#318=EDGE_LOOP('',(#116,#117,#118,#119));
#319=EDGE_LOOP('',(#120));
#320=EDGE_LOOP('',(#121));
#321=EDGE_LOOP('',(#122));
#322=EDGE_LOOP('',(#123));
#323=EDGE_LOOP('',(#124,#125,#126,#127));
#324=EDGE_LOOP('',(#128));
#325=EDGE_LOOP('',(#129));
#326=EDGE_LOOP('',(#130));
#327=EDGE_LOOP('',(#131));
#328=EDGE_LOOP('',(#132));
#329=EDGE_LOOP('',(#133));
#330=EDGE_LOOP('',(#134));
#331=EDGE_LOOP('',(#135));
#332=EDGE_LOOP('',(#136));
#333=EDGE_LOOP('',(#137));
#334=EDGE_LOOP('',(#138));
#335=EDGE_LOOP('',(#139));
#336=EDGE_LOOP('',(#140));
#337=EDGE_LOOP('',(#141));
#338=EDGE_LOOP('',(#142));
#339=EDGE_LOOP('',(#143));
#340=EDGE_LOOP('',(#144));
#341=EDGE_LOOP('',(#145));
#342=EDGE_LOOP('',(#146));
#343=EDGE_LOOP('',(#147));
#344=EDGE_LOOP('',(#148));
#345=EDGE_LOOP('',(#149));
#346=EDGE_LOOP('',(#150));
#347=EDGE_LOOP('',(#151));
#348=FACE_BOUND('',#300,.T.);
#349=FACE_BOUND('',#301,.T.);
#350=FACE_BOUND('',#302,.T.);
#351=FACE_BOUND('',#303,.T.);
#352=FACE_BOUND('',#304,.T.);
#353=FACE_BOUND('',#305,.T.);
#354=FACE_BOUND('',#306,.T.);
#355=FACE_BOUND('',#307,.T.);
#356=FACE_BOUND('',#308,.T.);
#357=FACE_BOUND('',#309,.T.);
#358=FACE_BOUND('',#310,.T.);
#359=FACE_BOUND('',#311,.T.);
#360=FACE_BOUND('',#312,.T.);
#361=FACE_BOUND('',#313,.T.);
#362=FACE_BOUND('',#314,.T.);
#363=FACE_BOUND('',#315,.T.);
#364=FACE_BOUND('',#316,.T.);
#365=FACE_BOUND('',#317,.T.);
#366=FACE_BOUND('',#318,.T.);
#367=FACE_BOUND('',#319,.T.);
#368=FACE_BOUND('',#320,.T.);
#369=FACE_BOUND('',#321,.T.);
#370=FACE_BOUND('',#322,.T.);
#371=FACE_BOUND('',#323,.T.);
#372=FACE_BOUND('',#324,.T.);
#373=FACE_BOUND('',#325,.T.);
#374=FACE_BOUND('',#326,.T.);
#375=FACE_BOUND('',#327,.T.);
#376=FACE_BOUND('',#328,.T.);
#377=FACE_BOUND('',#329,.T.);
#378=FACE_BOUND('',#330,.T.);
#379=FACE_BOUND('',#331,.T.);
#380=FACE_BOUND('',#332,.T.);
#381=FACE_BOUND('',#333,.T.);
#382=FACE_BOUND('',#334,.T.);
#383=FACE_BOUND('',#335,.T.);
#384=FACE_BOUND('',#336,.T.);
#385=FACE_BOUND('',#337,.T.);
#386=FACE_BOUND('',#338,.T.);
#387=FACE_BOUND('',#339,.T.);
#388=FACE_BOUND('',#340,.T.);
#389=FACE_BOUND('',#341,.T.);
#390=FACE_BOUND('',#342,.T.);
#391=FACE_BOUND('',#343,.T.);
#392=FACE_BOUND('',#344,.T.);
#393=FACE_BOUND('',#345,.T.);
#394=FACE_BOUND('',#346,.T.);
#395=FACE_BOUND('',#347,.T.);
#396=PLANE('',#451);
#397=PLANE('',#455);
#398=PLANE('',#459);
#399=PLANE('',#463);
#400=PLANE('',#467);
#401=PLANE('',#472);
#402=PLANE('',#473);
#403=PLANE('',#474);
#404=PLANE('',#475);
#405=PLANE('',#476);
#406=PLANE('',#477);
#407=PLANE('',#484);
#408=PLANE('',#489);
#409=PLANE('',#494);
#410=PLANE('',#499);
#411=ADVANCED_FACE('',(#348),#396,.F.);
#412=ADVANCED_FACE('',(#349),#36,.T.);
#413=ADVANCED_FACE('',(#350),#397,.T.);
#414=ADVANCED_FACE('',(#351),#37,.T.);
#415=ADVANCED_FACE('',(#352),#398,.T.);
#416=ADVANCED_FACE('',(#353),#38,.T.);
#417=ADVANCED_FACE('',(#354),#399,.F.);
#418=ADVANCED_FACE('',(#355),#39,.T.);
#419=ADVANCED_FACE('',(#356,#357,#358,#359,#360),#400,.T.);
#420=ADVANCED_FACE('',(#361,#362),#401,.F.);
#421=ADVANCED_FACE('',(#363),#402,.T.);
#422=ADVANCED_FACE('',(#364),#403,.F.);
#423=ADVANCED_FACE('',(#365),#404,.F.);
#424=ADVANCED_FACE('',(#366),#405,.T.);
#425=ADVANCED_FACE('',(#367,#368,#369,#370,#371),#406,.T.);
#426=ADVANCED_FACE('',(#372,#373),#40,.F.);
#427=ADVANCED_FACE('',(#374,#375),#407,.T.);
#428=ADVANCED_FACE('',(#376,#377),#41,.F.);
#429=ADVANCED_FACE('',(#378,#379),#42,.F.);
#430=ADVANCED_FACE('',(#380,#381),#408,.T.);
#431=ADVANCED_FACE('',(#382,#383),#43,.F.);
#432=ADVANCED_FACE('',(#384,#385),#44,.F.);
#433=ADVANCED_FACE('',(#386,#387),#409,.T.);
#434=ADVANCED_FACE('',(#388,#389),#45,.F.);
#435=ADVANCED_FACE('',(#390,#391),#46,.F.);
#436=ADVANCED_FACE('',(#392,#393),#410,.T.);
#437=ADVANCED_FACE('',(#394,#395),#47,.F.);
#438=CLOSED_SHELL('',(#411,#412,#413,#414,#415,#416,#417,#418,#419,#420,
#421,#422,#423,#424,#425,#426,#427,#428,#429,#430,#431,#432,#433,#434,#435,
#436,#437));
#439=STYLED_ITEM('',(#440),#447);
#440=PRESENTATION_STYLE_ASSIGNMENT((#441));
#441=SURFACE_STYLE_USAGE(.BOTH.,#442);
#442=SURFACE_SIDE_STYLE('',(#443));
#443=SURFACE_STYLE_FILL_AREA(#444);
#444=FILL_AREA_STYLE('',(#445));
#445=FILL_AREA_STYLE_COLOUR('',#446);
#446=COLOUR_RGB('',0.972549019607843,0.529411764705882,0.00392156862745098);
#447=MANIFOLD_SOLID_BREP('Part 1',#438);
#448=SHAPE_DEFINITION_REPRESENTATION(#760,#449);
#449=SHAPE_REPRESENTATION('Part 1',(#450),#755);
#450=AXIS2_PLACEMENT_3D('',#634,#502,#503);
#451=AXIS2_PLACEMENT_3D('',#635,#504,#505);
#452=AXIS2_PLACEMENT_3D('',#644,#510,#511);
#453=AXIS2_PLACEMENT_3D('',#645,#512,#513);
#454=AXIS2_PLACEMENT_3D('',#649,#515,#516);
#455=AXIS2_PLACEMENT_3D('',#650,#517,#518);
#456=AXIS2_PLACEMENT_3D('',#656,#522,#523);
#457=AXIS2_PLACEMENT_3D('',#657,#524,#525);
#458=AXIS2_PLACEMENT_3D('',#661,#527,#528);
#459=AXIS2_PLACEMENT_3D('',#662,#529,#530);
#460=AXIS2_PLACEMENT_3D('',#668,#534,#535);
#461=AXIS2_PLACEMENT_3D('',#669,#536,#537);
#462=AXIS2_PLACEMENT_3D('',#673,#539,#540);
#463=AXIS2_PLACEMENT_3D('',#674,#541,#542);
#464=AXIS2_PLACEMENT_3D('',#680,#546,#547);
#465=AXIS2_PLACEMENT_3D('',#681,#548,#549);
#466=AXIS2_PLACEMENT_3D('',#682,#550,#551);
#467=AXIS2_PLACEMENT_3D('',#683,#552,#553);
#468=AXIS2_PLACEMENT_3D('',#684,#554,#555);
#469=AXIS2_PLACEMENT_3D('',#686,#556,#557);
#470=AXIS2_PLACEMENT_3D('',#688,#558,#559);
#471=AXIS2_PLACEMENT_3D('',#690,#560,#561);
#472=AXIS2_PLACEMENT_3D('',#692,#562,#563);
#473=AXIS2_PLACEMENT_3D('',#701,#568,#569);
#474=AXIS2_PLACEMENT_3D('',#707,#573,#574);
#475=AXIS2_PLACEMENT_3D('',#711,#577,#578);
#476=AXIS2_PLACEMENT_3D('',#715,#581,#582);
#477=AXIS2_PLACEMENT_3D('',#717,#584,#585);
#478=AXIS2_PLACEMENT_3D('',#718,#586,#587);
#479=AXIS2_PLACEMENT_3D('',#720,#588,#589);
#480=AXIS2_PLACEMENT_3D('',#722,#590,#591);
#481=AXIS2_PLACEMENT_3D('',#724,#592,#593);
#482=AXIS2_PLACEMENT_3D('',#726,#594,#595);
#483=AXIS2_PLACEMENT_3D('',#727,#596,#597);
#484=AXIS2_PLACEMENT_3D('',#729,#598,#599);
#485=AXIS2_PLACEMENT_3D('',#730,#600,#601);
#486=AXIS2_PLACEMENT_3D('',#732,#602,#603);
#487=AXIS2_PLACEMENT_3D('',#733,#604,#605);
#488=AXIS2_PLACEMENT_3D('',#734,#606,#607);
#489=AXIS2_PLACEMENT_3D('',#736,#608,#609);
#490=AXIS2_PLACEMENT_3D('',#737,#610,#611);
#491=AXIS2_PLACEMENT_3D('',#739,#612,#613);
#492=AXIS2_PLACEMENT_3D('',#740,#614,#615);
#493=AXIS2_PLACEMENT_3D('',#741,#616,#617);
#494=AXIS2_PLACEMENT_3D('',#743,#618,#619);
#495=AXIS2_PLACEMENT_3D('',#744,#620,#621);
#496=AXIS2_PLACEMENT_3D('',#746,#622,#623);
#497=AXIS2_PLACEMENT_3D('',#747,#624,#625);
#498=AXIS2_PLACEMENT_3D('',#748,#626,#627);
#499=AXIS2_PLACEMENT_3D('',#750,#628,#629);
#500=AXIS2_PLACEMENT_3D('',#751,#630,#631);
#501=AXIS2_PLACEMENT_3D('',#753,#632,#633);
#502=DIRECTION('',(0.,0.,1.));
#503=DIRECTION('',(1.,0.,0.));
#504=DIRECTION('',(0.,1.,0.));
#505=DIRECTION('',(0.,0.,1.));
#506=DIRECTION('',(1.,0.,0.));
#507=DIRECTION('',(0.,0.,-1.));
#508=DIRECTION('',(1.,0.,0.));
#509=DIRECTION('',(0.,0.,-1.));
#510=DIRECTION('',(0.,0.,-1.));
#511=DIRECTION('',(-1.,0.,0.));
#512=DIRECTION('',(0.,0.,1.));
#513=DIRECTION('',(1.,0.,0.));
#514=DIRECTION('',(0.,0.,-1.));
#515=DIRECTION('',(0.,0.,1.));
#516=DIRECTION('',(1.,0.,0.));
#517=DIRECTION('',(1.,-1.4685489743719E-16,0.));
#518=DIRECTION('',(1.4685489743719E-16,1.,0.));
#519=DIRECTION('',(-1.4685489743719E-16,-1.,0.));
#520=DIRECTION('',(0.,0.,-1.));
#521=DIRECTION('',(-1.4685489743719E-16,-1.,0.));
#522=DIRECTION('',(0.,0.,-1.));
#523=DIRECTION('',(-1.,0.,0.));
#524=DIRECTION('',(0.,0.,1.));
#525=DIRECTION('',(1.,0.,0.));
#526=DIRECTION('',(0.,0.,-1.));
#527=DIRECTION('',(0.,0.,1.));
#528=DIRECTION('',(1.,0.,0.));
#529=DIRECTION('',(0.,1.,0.));
#530=DIRECTION('',(0.,0.,1.));
#531=DIRECTION('',(1.,0.,0.));
#532=DIRECTION('',(0.,0.,-1.));
#533=DIRECTION('',(1.,0.,0.));
#534=DIRECTION('',(0.,0.,-1.));
#535=DIRECTION('',(-1.,0.,0.));
#536=DIRECTION('',(0.,0.,1.));
#537=DIRECTION('',(1.,0.,0.));
#538=DIRECTION('',(0.,0.,-1.));
#539=DIRECTION('',(0.,0.,1.));
#540=DIRECTION('',(1.,0.,0.));
#541=DIRECTION('',(1.,-1.4685489743719E-16,0.));
#542=DIRECTION('',(1.4685489743719E-16,1.,0.));
#543=DIRECTION('',(-1.4685489743719E-16,-1.,0.));
#544=DIRECTION('',(0.,0.,-1.));
#545=DIRECTION('',(-1.4685489743719E-16,-1.,0.));
#546=DIRECTION('',(0.,0.,-1.));
#547=DIRECTION('',(-1.,0.,0.));
#548=DIRECTION('',(0.,0.,1.));
#549=DIRECTION('',(1.,0.,0.));
#550=DIRECTION('',(0.,0.,1.));
#551=DIRECTION('',(1.,0.,0.));
#552=DIRECTION('',(0.,0.,1.));
#553=DIRECTION('',(1.,0.,0.));
#554=DIRECTION('',(0.,0.,-1.));
#555=DIRECTION('',(-1.,0.,0.));
#556=DIRECTION('',(0.,0.,-1.));
#557=DIRECTION('',(-1.,0.,0.));
#558=DIRECTION('',(0.,0.,-1.));
#559=DIRECTION('',(-1.,0.,0.));
#560=DIRECTION('',(0.,0.,-1.));
#561=DIRECTION('',(-1.,0.,0.));
#562=DIRECTION('',(0.,0.,1.));
#563=DIRECTION('',(1.,0.,0.));
#564=DIRECTION('',(-2.92625994893294E-16,1.,0.));
#565=DIRECTION('',(1.,0.,0.));
#566=DIRECTION('',(-2.92625994893294E-16,1.,0.));
#567=DIRECTION('',(1.,0.,0.));
#568=DIRECTION('',(0.,-1.,0.));
#569=DIRECTION('',(0.,0.,-1.));
#570=DIRECTION('',(0.,0.,1.));
#571=DIRECTION('',(1.,0.,0.));
#572=DIRECTION('',(0.,0.,1.));
#573=DIRECTION('',(1.,2.92625994893294E-16,0.));
#574=DIRECTION('',(-2.92625994893294E-16,1.,0.));
#575=DIRECTION('',(0.,0.,1.));
#576=DIRECTION('',(-2.92625994893294E-16,1.,0.));
#577=DIRECTION('',(0.,-1.,0.));
#578=DIRECTION('',(0.,0.,-1.));
#579=DIRECTION('',(0.,0.,1.));
#580=DIRECTION('',(1.,0.,0.));
#581=DIRECTION('',(1.,2.92625994893294E-16,0.));
#582=DIRECTION('',(-2.92625994893294E-16,1.,0.));
#583=DIRECTION('',(-2.92625994893294E-16,1.,0.));
#584=DIRECTION('',(0.,0.,-1.));
#585=DIRECTION('',(1.,0.,0.));
#586=DIRECTION('',(0.,0.,-1.));
#587=DIRECTION('',(-1.,0.,0.));
#588=DIRECTION('',(0.,0.,-1.));
#589=DIRECTION('',(-1.,0.,0.));
#590=DIRECTION('',(0.,0.,-1.));
#591=DIRECTION('',(-1.,0.,0.));
#592=DIRECTION('',(0.,0.,-1.));
#593=DIRECTION('',(-1.,0.,0.));
#594=DIRECTION('',(0.,0.,-1.));
#595=DIRECTION('',(-1.,0.,0.));
#596=DIRECTION('',(0.,0.,-1.));
#597=DIRECTION('',(-1.,0.,0.));
#598=DIRECTION('',(0.,0.,1.));
#599=DIRECTION('',(1.,0.,0.));
#600=DIRECTION('',(0.,0.,-1.));
#601=DIRECTION('',(-1.,0.,0.));
#602=DIRECTION('',(0.,0.,-1.));
#603=DIRECTION('',(-1.,0.,0.));
#604=DIRECTION('',(0.,0.,-1.));
#605=DIRECTION('',(-1.,0.,0.));
#606=DIRECTION('',(0.,0.,-1.));
#607=DIRECTION('',(-1.,0.,0.));
#608=DIRECTION('',(0.,0.,1.));
#609=DIRECTION('',(1.,0.,0.));
#610=DIRECTION('',(0.,0.,-1.));
#611=DIRECTION('',(-1.,0.,0.));
#612=DIRECTION('',(0.,0.,-1.));
#613=DIRECTION('',(-1.,0.,0.));
#614=DIRECTION('',(0.,0.,-1.));
#615=DIRECTION('',(-1.,0.,0.));
#616=DIRECTION('',(0.,0.,-1.));
#617=DIRECTION('',(-1.,0.,0.));
#618=DIRECTION('',(0.,0.,1.));
#619=DIRECTION('',(1.,0.,0.));
#620=DIRECTION('',(0.,0.,-1.));
#621=DIRECTION('',(-1.,0.,0.));
#622=DIRECTION('',(0.,0.,-1.));
#623=DIRECTION('',(-1.,0.,0.));
#624=DIRECTION('',(0.,0.,-1.));
#625=DIRECTION('',(-1.,0.,0.));
#626=DIRECTION('',(0.,0.,-1.));
#627=DIRECTION('',(-1.,0.,0.));
#628=DIRECTION('',(0.,0.,1.));
#629=DIRECTION('',(1.,0.,0.));
#630=DIRECTION('',(0.,0.,-1.));
#631=DIRECTION('',(-1.,0.,0.));
#632=DIRECTION('',(0.,0.,-1.));
#633=DIRECTION('',(-1.,0.,0.));
#634=CARTESIAN_POINT('',(0.,0.,0.));
#635=CARTESIAN_POINT('',(-2.77555756156289E-17,-0.0975,0.138366));
#636=CARTESIAN_POINT('',(-2.77555756156289E-17,-0.0975,0.134366));
#637=CARTESIAN_POINT('',(-0.1745,-0.0975,0.134366));
#638=CARTESIAN_POINT('',(0.1745,-0.0975,0.134366));
#639=CARTESIAN_POINT('',(0.1745,-0.0975,0.138366));
#640=CARTESIAN_POINT('',(0.1745,-0.0975,0.138366));
#641=CARTESIAN_POINT('',(-2.77555756156289E-17,-0.0975,0.138366));
#642=CARTESIAN_POINT('',(-0.1745,-0.0975,0.138366));
#643=CARTESIAN_POINT('',(-0.1745,-0.0975,0.138366));
#644=CARTESIAN_POINT('',(0.1745,-0.0945,0.138366));
#645=CARTESIAN_POINT('',(0.1745,-0.0945,0.134366));
#646=CARTESIAN_POINT('',(0.1775,-0.0945,0.134366));
#647=CARTESIAN_POINT('',(0.1775,-0.0945,0.138366));
#648=CARTESIAN_POINT('',(0.1775,-0.0945,0.138366));
#649=CARTESIAN_POINT('',(0.1745,-0.0945,0.138366));
#650=CARTESIAN_POINT('',(0.1775,0.,0.138366));
#651=CARTESIAN_POINT('',(0.1775,0.,0.134366));
#652=CARTESIAN_POINT('',(0.1775,0.0945,0.134366));
#653=CARTESIAN_POINT('',(0.1775,0.0945,0.138366));
#654=CARTESIAN_POINT('',(0.1775,0.0945,0.138366));
#655=CARTESIAN_POINT('',(0.1775,0.,0.138366));
#656=CARTESIAN_POINT('',(0.1745,0.0945,0.138366));
#657=CARTESIAN_POINT('',(0.1745,0.0945,0.134366));
#658=CARTESIAN_POINT('',(0.1745,0.0975,0.134366));
#659=CARTESIAN_POINT('',(0.1745,0.0975,0.138366));
#660=CARTESIAN_POINT('',(0.1745,0.0975,0.138366));
#661=CARTESIAN_POINT('',(0.1745,0.0945,0.138366));
#662=CARTESIAN_POINT('',(0.,0.0975,0.138366));
#663=CARTESIAN_POINT('',(0.,0.0975,0.134366));
#664=CARTESIAN_POINT('',(-0.1745,0.0975,0.134366));
#665=CARTESIAN_POINT('',(-0.1745,0.0975,0.138366));
#666=CARTESIAN_POINT('',(-0.1745,0.0975,0.138366));
#667=CARTESIAN_POINT('',(0.,0.0975,0.138366));
#668=CARTESIAN_POINT('',(-0.1745,0.0945,0.138366));
#669=CARTESIAN_POINT('',(-0.1745,0.0945,0.134366));
#670=CARTESIAN_POINT('',(-0.1775,0.0945,0.134366));
#671=CARTESIAN_POINT('',(-0.1775,0.0945,0.138366));
#672=CARTESIAN_POINT('',(-0.1775,0.0945,0.138366));
#673=CARTESIAN_POINT('',(-0.1745,0.0945,0.138366));
#674=CARTESIAN_POINT('',(-0.1775,1.38777878078145E-17,0.138366));
#675=CARTESIAN_POINT('',(-0.1775,1.38777878078145E-17,0.134366));
#676=CARTESIAN_POINT('',(-0.1775,-0.0945,0.134366));
#677=CARTESIAN_POINT('',(-0.1775,-0.0945,0.138366));
#678=CARTESIAN_POINT('',(-0.1775,-0.0945,0.138366));
#679=CARTESIAN_POINT('',(-0.1775,1.38777878078145E-17,0.138366));
#680=CARTESIAN_POINT('',(-0.1745,-0.0945,0.138366));
#681=CARTESIAN_POINT('',(-0.1745,-0.0945,0.134366));
#682=CARTESIAN_POINT('',(-0.1745,-0.0945,0.138366));
#683=CARTESIAN_POINT('',(0.,0.,0.138366));
#684=CARTESIAN_POINT('',(-0.16,0.083,0.138366));
#685=CARTESIAN_POINT('',(-0.1625,0.083,0.138366));
#686=CARTESIAN_POINT('',(0.16,-0.083,0.138366));
#687=CARTESIAN_POINT('',(0.1575,-0.083,0.138366));
#688=CARTESIAN_POINT('',(0.16,0.083,0.138366));
#689=CARTESIAN_POINT('',(0.1575,0.083,0.138366));
#690=CARTESIAN_POINT('',(-0.16,-0.083,0.138366));
#691=CARTESIAN_POINT('',(-0.1625,-0.083,0.138366));
#692=CARTESIAN_POINT('',(0.,0.,0.134366));
#693=CARTESIAN_POINT('',(-0.17485,-1.38777878078145E-17,0.134366));
#694=CARTESIAN_POINT('',(-0.17485,-0.09485,0.134366));
#695=CARTESIAN_POINT('',(-0.17485,0.09485,0.134366));
#696=CARTESIAN_POINT('',(2.77555756156289E-17,-0.09485,0.134366));
#697=CARTESIAN_POINT('',(0.17485,-0.09485,0.134366));
#698=CARTESIAN_POINT('',(0.17485,-1.38777878078145E-17,0.134366));
#699=CARTESIAN_POINT('',(0.17485,0.09485,0.134366));
#700=CARTESIAN_POINT('',(-2.77555756156289E-17,0.09485,0.134366));
#701=CARTESIAN_POINT('',(2.77555756156289E-17,-0.09485,0.131366));
#702=CARTESIAN_POINT('',(-0.17485,-0.09485,0.131366));
#703=CARTESIAN_POINT('',(-0.17485,-0.09485,0.131366));
#704=CARTESIAN_POINT('',(2.77555756156289E-17,-0.09485,0.131366));
#705=CARTESIAN_POINT('',(0.17485,-0.09485,0.131366));
#706=CARTESIAN_POINT('',(0.17485,-0.09485,0.131366));
#707=CARTESIAN_POINT('',(-0.17485,-1.38777878078145E-17,0.131366));
#708=CARTESIAN_POINT('',(-0.17485,0.09485,0.131366));
#709=CARTESIAN_POINT('',(-0.17485,0.09485,0.131366));
#710=CARTESIAN_POINT('',(-0.17485,-1.38777878078145E-17,0.131366));
#711=CARTESIAN_POINT('',(-2.77555756156289E-17,0.09485,0.131366));
#712=CARTESIAN_POINT('',(0.17485,0.09485,0.131366));
#713=CARTESIAN_POINT('',(0.17485,0.09485,0.131366));
#714=CARTESIAN_POINT('',(-2.77555756156289E-17,0.09485,0.131366));
#715=CARTESIAN_POINT('',(0.17485,-1.38777878078145E-17,0.131366));
#716=CARTESIAN_POINT('',(0.17485,-1.38777878078145E-17,0.131366));
#717=CARTESIAN_POINT('',(-2.77555756156289E-17,0.,0.131366));
#718=CARTESIAN_POINT('',(-0.16,0.083,0.131366));
#719=CARTESIAN_POINT('',(-0.1614,0.083,0.131366));
#720=CARTESIAN_POINT('',(0.16,-0.083,0.131366));
#721=CARTESIAN_POINT('',(0.1586,-0.083,0.131366));
#722=CARTESIAN_POINT('',(0.16,0.083,0.131366));
#723=CARTESIAN_POINT('',(0.1586,0.083,0.131366));
#724=CARTESIAN_POINT('',(-0.16,-0.083,0.131366));
#725=CARTESIAN_POINT('',(-0.1614,-0.083,0.131366));
#726=CARTESIAN_POINT('',(-0.16,-0.083,0.138366));
#727=CARTESIAN_POINT('',(-0.16,-0.083,0.136366));
#728=CARTESIAN_POINT('',(-0.1614,-0.083,0.136366));
#729=CARTESIAN_POINT('',(-0.1575,-0.083,0.136366));
#730=CARTESIAN_POINT('',(-0.16,-0.083,0.136366));
#731=CARTESIAN_POINT('',(-0.1625,-0.083,0.136366));
#732=CARTESIAN_POINT('',(-0.16,-0.083,0.138366));
#733=CARTESIAN_POINT('',(0.16,0.083,0.138366));
#734=CARTESIAN_POINT('',(0.16,0.083,0.136366));
#735=CARTESIAN_POINT('',(0.1586,0.083,0.136366));
#736=CARTESIAN_POINT('',(0.1625,0.083,0.136366));
#737=CARTESIAN_POINT('',(0.16,0.083,0.136366));
#738=CARTESIAN_POINT('',(0.1575,0.083,0.136366));
#739=CARTESIAN_POINT('',(0.16,0.083,0.138366));
#740=CARTESIAN_POINT('',(0.16,-0.083,0.138366));
#741=CARTESIAN_POINT('',(0.16,-0.083,0.136366));
#742=CARTESIAN_POINT('',(0.1586,-0.083,0.136366));
#743=CARTESIAN_POINT('',(0.1625,-0.083,0.136366));
#744=CARTESIAN_POINT('',(0.16,-0.083,0.136366));
#745=CARTESIAN_POINT('',(0.1575,-0.083,0.136366));
#746=CARTESIAN_POINT('',(0.16,-0.083,0.138366));
#747=CARTESIAN_POINT('',(-0.16,0.083,0.138366));
#748=CARTESIAN_POINT('',(-0.16,0.083,0.136366));
#749=CARTESIAN_POINT('',(-0.1614,0.083,0.136366));
#750=CARTESIAN_POINT('',(-0.1575,0.083,0.136366));
#751=CARTESIAN_POINT('',(-0.16,0.083,0.136366));
#752=CARTESIAN_POINT('',(-0.1625,0.083,0.136366));
#753=CARTESIAN_POINT('',(-0.16,0.083,0.138366));
#754=MECHANICAL_DESIGN_GEOMETRIC_PRESENTATION_REPRESENTATION('',(#439),
#755);
#755=(
GEOMETRIC_REPRESENTATION_CONTEXT(3)
GLOBAL_UNCERTAINTY_ASSIGNED_CONTEXT((#756))
GLOBAL_UNIT_ASSIGNED_CONTEXT((#759,#758,#757))
REPRESENTATION_CONTEXT('Part 1','TOP_LEVEL_ASSEMBLY_PART')
);
#756=UNCERTAINTY_MEASURE_WITH_UNIT(LENGTH_MEASURE(1.E-8),#759,
'DISTANCE_ACCURACY_VALUE','Maximum Tolerance applied to model');
#757=(
NAMED_UNIT(*)
SI_UNIT($,.STERADIAN.)
SOLID_ANGLE_UNIT()
);
#758=(
NAMED_UNIT(*)
PLANE_ANGLE_UNIT()
SI_UNIT($,.RADIAN.)
);
#759=(
LENGTH_UNIT()
NAMED_UNIT(*)
SI_UNIT($,.METRE.)
);
#760=PRODUCT_DEFINITION_SHAPE('','',#761);
#761=PRODUCT_DEFINITION('','',#763,#762);
#762=PRODUCT_DEFINITION_CONTEXT('',#769,'design');
#763=PRODUCT_DEFINITION_FORMATION_WITH_SPECIFIED_SOURCE('','',#765,
 .NOT_KNOWN.);
#764=PRODUCT_RELATED_PRODUCT_CATEGORY('','',(#765));
#765=PRODUCT('Part 1','Part 1','Part 1',(#767));
#766=PRODUCT_CATEGORY('','');
#767=PRODUCT_CONTEXT('',#769,'mechanical');
#768=APPLICATION_PROTOCOL_DEFINITION('international standard',
'ap242_managed_model_based_3d_engineering',2020,#769);
#769=APPLICATION_CONTEXT('managed model based 3d engineering');
ENDSEC;
END-ISO-10303-21;
